<svg id="Capa_1" data-name="Capa 1" xmlns="http://www.w3.org/2000/svg" viewBox="0 0 187.24 278.38"><g id="Layer_1" data-name="Layer 1"><path d="M56,228.55H55l-.13-.94c-.43-3.14-.84-5.87-1.2-8.29-1.66-11.06-2.35-15.64,1-21s8.32-8.92,13-12.25c4.94-3.52,10-7.15,13.53-13.23,3.36-5.82,3.19-12.26-.44-16.8-4.34-5.43-12.46-6.95-21.74-4.08a68.43,68.43,0,0,0-11.77,4.89c-7.71,4-8.28,3.1-17.65-11.52-1-1.51-2-3.17-3.24-5l-.53-.81.74-.62C46,122.63,69.8,117.61,90.22,125.46c14.94,5.74,25,17.33,26.92,31,2.18,15.53-6.48,31.51-24.37,45-11.63,8.77-11.12,14.75-10.79,18.7.17,1.93.32,3.76-1,5.21C78.7,227.78,72.63,228.55,56,228.55Zm11.89-80.16c6.15,0,11.33,2.17,14.66,6.32,4.2,5.26,4.44,12.64.63,19.26s-9,10.27-14.16,13.92c-4.71,3.36-9.16,6.53-12.42,11.65-3,4.63-2.34,8.67-.72,19.46.33,2.17.69,4.61,1.08,7.37,14.46,0,20.76-.74,22.38-2.49.64-.71.59-1.7.43-3.55-.37-4.43-.94-11.12,11.65-20.62,17.24-13,25.59-28.24,23.53-43-1.81-12.86-11.35-23.8-25.54-29.25-19.41-7.46-42-2.8-60.69,12.46,1,1.51,1.89,2.91,2.72,4.2,4.49,7,7,10.8,8.82,12.07,1.44,1,2.61.47,6.08-1.3a70.76,70.76,0,0,1,12.12-5A31.83,31.83,0,0,1,67.87,148.39Z" transform="translate(0 0)" fill="#1f140f"/><path d="M66.38,273.65c-8.54,0-17.73-5.4-17.73-17.25s9.19-17.21,17.73-17.21c8.86,0,17.83,5.91,17.83,17.21a16.47,16.47,0,0,1-5.58,12.93A18.69,18.69,0,0,1,66.38,273.65Zm0-32.27c-7.49,0-15.54,4.7-15.54,15s8,15.07,15.54,15.07S82,266.73,82,256.38,73.91,241.38,66.38,241.38Z" transform="translate(0 0)" fill="#1f140f"/><path d="M56,233.33H50.91l-.69-5c-.41-3-.8-5.6-1.14-7.92v-.31c-1.74-11.57-2.61-17.38,1.72-24.19.32-.51.66-1,1-1.48l1.78,1.27q-.48.68-.93,1.38c-3.9,6.12-3.07,11.66-1.41,22.7v.31c.35,2.33.74,4.95,1.15,7.94l.43,3.14H56c17.94,0,24-.9,26.81-4a6.74,6.74,0,0,0,1.77-4.43l2.18.12a8.93,8.93,0,0,1-2.34,5.79C81,232.33,75.11,233.33,56,233.33Z" transform="translate(0 0)" fill="#1f140f"/><path d="M81.07,165.72l-2.17-.24a10,10,0,0,0,.06-1.09A8.66,8.66,0,0,0,77.82,160c-1.92-3.31-6.15-5-11.34-4.69l-.15-2.18c6.08-.42,11,1.73,13.38,5.78a10.75,10.75,0,0,1,1.43,5.45A11.85,11.85,0,0,1,81.07,165.72Z" transform="translate(0 0)" fill="#1f140f"/><path d="M41.7,163.64c-5.94,0-8.7-4.28-16.08-15.72l-.07-.09c-1-1.49-2-3.12-3.17-4.91l-2.81-4.32,4-3.31a77.38,77.38,0,0,1,30.32-16l.55,2.12A75.15,75.15,0,0,0,25,137l-2.46,2.06,1.75,2.7c1.17,1.79,2.23,3.42,3.18,4.91l-.86.69.92-.6c7.11,11,9.51,14.73,14.25,14.73a11.41,11.41,0,0,0,5-1.43l1,2A13.32,13.32,0,0,1,41.7,163.64Z" transform="translate(0 0)" fill="#1f140f"/><path d="M109.73,192l-1.68-1.41c7.81-9.32,11.94-19.47,11.94-29.33a35.8,35.8,0,0,0-.84-7.72l2.14-.47a38.26,38.26,0,0,1,.89,8.19C122.18,171.61,117.87,182.24,109.73,192Z" transform="translate(0 0)" fill="#1f140f"/><path d="M66.48,278.38h-.1c-11.16,0-22.45-7.55-22.45-22a23.54,23.54,0,0,1,1.16-7.49l2.08.69a21.51,21.51,0,0,0-1.05,6.8c0,13,10.19,19.79,20.26,19.79ZM86.63,266.7l-2-1a20.29,20.29,0,0,0,2.11-9.31,19.41,19.41,0,0,0-3.56-11.67L85,243.43a21.6,21.6,0,0,1,4,13A22.42,22.42,0,0,1,86.63,266.7Z" transform="translate(0 0)" fill="#1f140f"/><path d="M135.56,177h-1.18l-.16-1.17c-.31-2.31-.62-4.32-.88-6.1-1.25-8.29-1.76-11.72.84-15.81s6.23-6.69,9.71-9.17c3.76-2.68,7.3-5.2,9.81-9.57,2.35-4.09,2.25-8.59-.28-11.75-3-3.82-8.81-4.87-15.41-2.82a50.23,50.23,0,0,0-8.58,3.56c-6.15,3.12-6.87,2-13.77-8.69-.72-1.11-1.51-2.34-2.39-3.68l-.65-1,.92-.77c14.45-12.11,32.17-15.84,47.39-10,11.2,4.3,18.74,13,20.18,23.26,1.63,11.64-4.82,23.59-18.17,33.64-8.32,6.28-8,10.33-7.72,13.28.12,1.48.25,3-.89,4.26C152.55,176.41,148.17,177,135.56,177Zm8.76-60.13c4.69,0,8.66,1.67,11.22,4.86,3.23,4,3.43,9.73.51,14.8-2.81,4.88-6.76,7.7-10.58,10.43-3.43,2.44-6.66,4.74-9,8.42-2.06,3.23-1.63,6.15-.45,14,.22,1.48.46,3.12.72,5,7.17,0,14.33-.27,15.6-1.66.32-.35.28-1,.18-2.19-.27-3.18-.73-8.49,8.79-15.67,12.52-9.44,18.6-20.48,17.11-31.11-1.3-9.27-8.2-17.16-18.46-21.1-14-5.37-30.25-2.09-43.75,8.78.62,1,1.19,1.84,1.72,2.67,3.28,5.07,5.08,7.86,6.35,8.73.78.53,1.35.32,3.92-1a52.37,52.37,0,0,1,9-3.73,23.92,23.92,0,0,1,7.12-1.18Z" transform="translate(0 0)" fill="#1f140f"/><path d="M143.22,210.21c-6.76,0-13.61-4.56-13.61-13.26s6.85-13.22,13.61-13.22S156.9,188.27,156.9,197,150,210.21,143.22,210.21Zm0-23.77c-5.25,0-10.9,3.29-10.9,10.51s5.65,10.55,10.9,10.55,11-3.3,11-10.55S148.5,186.44,143.22,186.44Z" transform="translate(0 0)" fill="#1f140f"/><path d="M135.56,182.85h-6.29l-.85-6.23c-.31-2.24-.6-4.2-.86-5.93-1.31-8.74-2.1-14,1.68-19.91,3.24-5.08,7.5-8.12,11.25-10.8l1.3-.92,1.58,2.19-1.3.94c-3.56,2.53-7.59,5.41-10.54,10-3.24,5.09-2.59,9.39-1.3,18,.27,1.83.57,3.8.88,6l.53,3.89h3.92c12.57,0,18.28-.49,21.09-3.55,2.07-2.26,1.85-4.9,1.7-6.64-.24-2.83.05-5.55,6.08-10.2l1.66,2.15c-5.35,4.12-5.19,6-5,7.81a10.67,10.67,0,0,1-2.41,8.72C155.19,182.18,149.63,182.85,135.56,182.85Z" transform="translate(0 0)" fill="#1f140f"/><path d="M152,131.27l-2.61-.72a5.56,5.56,0,0,0,.19-1.34,3.45,3.45,0,0,0-.44-1.75,3.24,3.24,0,0,0-1-1l1.58-2.2a5.89,5.89,0,0,1,1.71,1.87,6.17,6.17,0,0,1,.81,3.11A7.72,7.72,0,0,1,152,131.27Z" transform="translate(0 0)" fill="#1f140f"/><path d="M125.05,131.58c-6,0-8.58-4.05-14.31-12.92l-5.86-9,4.9-4.1c12-10,25.9-14.91,39.87-13.92l-.19,2.7c-13.28-.93-26.52,3.73-37.94,13.3l-3,2.56,4.55,7c5.49,8.5,7.54,11.68,12,11.68,2.07,0,3.8-.88,5.8-1.9a47.6,47.6,0,0,1,8.09-3.36,19.64,19.64,0,0,1,3.86-.81l.27,2.69a18,18,0,0,0-3.33.71,44.23,44.23,0,0,0-7.66,3.19C130,130.46,127.77,131.58,125.05,131.58Z" transform="translate(0 0)" fill="#1f140f"/><path d="M182.55,144l-2.36-1.32a32.05,32.05,0,0,0,4.34-15.72,28.29,28.29,0,0,0-.74-6.42l2.64-.62a30.5,30.5,0,0,1,.81,7A34.76,34.76,0,0,1,182.55,144Z" transform="translate(0 0)" fill="#1f140f"/><path d="M143.22,216.06c-9.67,0-19.46-6.56-19.46-19.11s9.79-19.07,19.46-19.07c9.47,0,19.53,6.68,19.53,19.07a18.92,18.92,0,0,1-2.69,10l-2.32-1.41a16.2,16.2,0,0,0,2.3-8.61c0-10.63-8.67-16.36-16.82-16.36-8.32,0-16.75,5.62-16.75,16.36s8.43,16.4,16.75,16.4Z" transform="translate(0 0)" fill="#1f140f"/><path d="M80.79,126H79.71l-.15-1.07c-.49-3.62-1-6.78-1.38-9.56-1.92-12.75-2.71-18,1.19-24.16,4-6.32,9.59-10.29,15-14.13C100.06,73,106,68.8,110,61.79c3.87-6.74,3.67-14.18-.52-19.42-5-6.27-14.4-8-25.1-4.71a78.9,78.9,0,0,0-13.6,5.67C61.86,47.86,61.21,46.85,50.34,30l-3.71-5.8L46,23.3l.84-.7C69.24,3.83,96.63-2,120.22,7.09c17.23,6.63,28.84,20,31,35.74,2.51,17.91-7.47,36.34-28.11,51.89-13.43,10.13-12.85,17-12.46,21.59.19,2.23.37,4.33-1.15,6C107,125.09,100,126,80.79,126ZM94.5,33.54c7.09,0,13.06,2.5,16.89,7.29,4.84,6,5.12,14.56.73,22.19S101.7,74.86,95.79,79c-5.44,3.87-10.58,7.54-14.34,13.44-3.4,5.35-2.7,10-.83,22.47.38,2.52.8,5.34,1.24,8.53,16.72,0,24-.85,25.87-2.88.75-.82.69-2,.51-4.11-.44-5.11-1.09-12.82,13.43-23.77,19.89-15,29.53-32.6,27.15-49.58-2.08-14.85-13.1-27.47-29.48-33.77C96.92.73,70.81,6.12,49.28,23.74l3.14,4.86c5.19,8,8,12.47,10.19,13.94,1.67,1.14,3,.55,7-1.5a82.45,82.45,0,0,1,14-5.71A36.82,36.82,0,0,1,94.5,33.54Z" transform="translate(0 0)" fill="#1f140f"/><path d="M92.78,178c-9.84,0-20.42-6.22-20.42-19.88s10.58-19.8,20.42-19.8c10.21,0,20.55,6.81,20.55,19.83S103,178,92.78,178Zm0-37.23c-8.65,0-18,5.43-18,17.35s9.3,17.41,18,17.41,18.08-5.45,18.08-17.41S101.49,140.78,92.78,140.78Z" transform="translate(0 0)" fill="#1f140f"/><path d="M80.79,131.7H74.72l-.82-6c-.49-3.6-1-6.73-1.38-9.49-2-13.41-3-20.15,2-28.08.12-.19.24-.39.37-.58L77,88.92l-.35.53C72.05,96.61,73,103,74.94,115.84c.41,2.77.89,5.92,1.38,9.52l.53,3.88h3.91c20.79,0,27.77-1.07,31.15-4.74a7.85,7.85,0,0,0,2-3.91l2.43.45a10.16,10.16,0,0,1-2.56,5.14C109.77,130.51,102.68,131.7,80.79,131.7Z" transform="translate(0 0)" fill="#1f140f"/><path d="M109.43,53.62,107,53.33a12.22,12.22,0,0,0,.08-1.35,9.61,9.61,0,0,0-1.28-4.91c-2.26-3.91-7.36-5.87-13.69-5.23l-.25-2.45c7.33-.76,13.32,1.67,16.08,6.44A12.16,12.16,0,0,1,109.52,52,14.88,14.88,0,0,1,109.43,53.62Z" transform="translate(0 0)" fill="#1f140f"/><path d="M64.31,51.33c-7,0-10.19-5-18.77-18.26-1.12-1.74-2.35-3.63-3.72-5.74l-3.37-5.17,4.73-4A89.94,89.94,0,0,1,77,0l.66,2.38A87.59,87.59,0,0,0,44.76,20.11l-3,2.55L43.93,26l3.7,5.77c8.27,12.81,11,17.13,16.69,17.13a11.41,11.41,0,0,0,4.56-1.07l1,2.27A13.75,13.75,0,0,1,64.31,51.33Z" transform="translate(0 0)" fill="#1f140f"/><path d="M142.63,84.33l-1.89-1.6c9.29-10.89,14.19-22.8,14.19-34.4a41.93,41.93,0,0,0-1-9l2.41-.53a44.45,44.45,0,0,1,1,9.55C157.4,60.52,152.29,73,142.63,84.33Z" transform="translate(0 0)" fill="#1f140f"/><path d="M92.9,183.73h-.12c-13,0-26.14-8.79-26.14-25.6A27.44,27.44,0,0,1,68,149.41l2.35.78a24.86,24.86,0,0,0-1.23,7.94c0,15.18,11.91,23.13,23.67,23.13Zm23.42-13.6-2.2-1.12a23.71,23.71,0,0,0,2.45-10.88,22.63,22.63,0,0,0-4.15-13.64l2-1.45a25.13,25.13,0,0,1,4.63,15.09,26.28,26.28,0,0,1-2.73,12Z" transform="translate(0 0)" fill="#1f140f"/><path d="M24.89,99.33h-1l-.14-1c-.25-1.84-.49-3.45-.71-4.87-1-6.45-1.41-9.4.69-12.7s5-5.37,7.79-7.36c3-2.13,5.81-4.14,7.81-7.61,1.86-3.24,1.78-6.81-.22-9.3-2.41-3-7-3.85-12.22-2.23a39.63,39.63,0,0,0-6.84,2.84c-5,2.54-5.57,1.64-11.13-7L7,47.1l-.59-.77.8-.66C18.8,36,33,33,45.23,37.67c9,3.45,15,10.42,16.18,18.66,1.31,9.34-3.86,18.92-14.55,27-6.61,5-6.34,8.19-6.14,10.53.1,1.21.21,2.45-.73,3.47C38.51,98.85,35,99.33,24.89,99.33Zm7-48.25a11.16,11.16,0,0,1,9,3.92c2.62,3.27,2.78,7.84.42,11.93-2.25,3.92-5.42,6.18-8.48,8.36-2.73,2-5.31,3.79-7.17,6.71-1.63,2.56-1.28,4.88-.35,11.1.17,1.16.37,2.44.57,3.88,5.68,0,11.34-.22,12.32-1.29.23-.25.2-.78.12-1.69-.21-2.56-.58-6.84,7.07-12.6,10-7.53,14.83-16.33,13.64-24.79C58,49.23,52.5,43,44.33,39.81c-11.12-4.27-24.07-1.67-34.83,7l1.34,2.08c2.61,4,4.05,6.27,5.05,7,.55.38.92.28,3-.8a43,43,0,0,1,7.22-3A19.24,19.24,0,0,1,31.89,51.08Z" transform="translate(0 0)" fill="#1f140f"/><path d="M24.89,104.19H19.63L18.92,99c-.25-1.79-.49-3.36-.69-4.75-1.06-7-1.7-11.26,1.38-16.09,2.62-4.11,6-6.56,9.07-8.71,1.12-.8,2.17-1.55,3.12-2.33l1.5,1.8c-1,.84-2.11,1.62-3.26,2.44-2.85,2-6.08,4.33-8.45,8.06-2.61,4.09-2.09,7.55-1,14.42.21,1.46.45,3,.7,4.84l.43,3.2H25c10.08,0,14.66-.4,16.93-2.87a6.56,6.56,0,0,0,1.38-5.39c-.2-2.36.06-4.47,5.15-8.3.63-.48,1.25-1,1.84-1.45l1.49,1.81c-.62.51-1.26,1-1.92,1.51-4.46,3.36-4.35,4.76-4.22,6.23a8.84,8.84,0,0,1-2,7.17C40.72,103.64,36.2,104.19,24.89,104.19Z" transform="translate(0 0)" fill="#1f140f"/><path d="M37.87,62.78l-2.24-.66A3.65,3.65,0,0,0,35.8,61a2.53,2.53,0,0,0-.31-1.26l1.9-1.36a1.37,1.37,0,0,1,.13.2A4.87,4.87,0,0,1,38.14,61,5.81,5.81,0,0,1,37.87,62.78Z" transform="translate(0 0)" fill="#1f140f"/><path d="M16.48,63.21c-4.92,0-7-3.28-11.67-10.46l-.13-.21c-.53-.83-1.12-1.73-1.76-2.72L0,45.33l4.1-3.44C12.92,34.51,23,30.6,33.34,30.6A41.06,41.06,0,0,1,39,31l-.36,2.33A37.86,37.86,0,0,0,33.31,33c-9.68,0-19.32,3.71-27.68,10.74l-2.51,2.1,1.79,2.75,1.77,2.73.13.21c4.7,7.28,6.21,9.38,9.7,9.38a10.33,10.33,0,0,0,4.66-1.53,38.76,38.76,0,0,1,6.46-2.68,12.63,12.63,0,0,1,6.1-.53l-.46,2.3a10.54,10.54,0,0,0-5,.47,35.14,35.14,0,0,0-6.08,2.53A12.25,12.25,0,0,1,16.48,63.21Z" transform="translate(0 0)" fill="#1f140f"/><path d="M63.39,71.65,61.3,70.59A25.35,25.35,0,0,0,64.13,59.2,23.18,23.18,0,0,0,63.54,54l2.28-.53a25,25,0,0,1,.66,5.71A27.66,27.66,0,0,1,63.39,71.65Z" transform="translate(0 0)" fill="#1f140f"/><path d="M31,138.33c-7.87,0-15.83-5.34-15.83-15.55s8-15.52,15.83-15.52S46.9,112.7,46.9,122.78A15,15,0,0,1,41,135l-1.41-1.87a12.43,12.43,0,0,0,5-10.39c0-8.56-7-13.18-13.55-13.18s-13.49,4.53-13.49,13.18S24.31,136,31,136Z" transform="translate(0 0)" fill="#1f140f"/><path d="M31,133.44c-5.45,0-11-3.67-11-10.69s5.51-10.65,11-10.65,11,3.66,11,10.65S36.49,133.44,31,133.44Zm0-19c-4.15,0-8.62,2.6-8.62,8.31s4.47,8.34,8.62,8.34,8.68-2.61,8.68-8.34A7.89,7.89,0,0,0,37,116.53,9.19,9.19,0,0,0,31,114.44Z" transform="translate(0 0)" fill="#1f140f"/></g></svg>